Results
version=1
nRows=4
nColumns=213
inDegrees=yes
endheader
time	platform_rx	platform_ry	platform_rz	platform_ty	pelvis_tilt	pelvis_list	pelvis_rotation	pelvis_tx	pelvis_ty	pelvis_tz	hip_flexion_r	hip_adduction_r	hip_rotation_r	knee_angle_r	knee_angle_r_beta	ankle_angle_r	subtalar_angle_r	mtp_angle_r	hip_flexion_l	hip_adduction_l	hip_rotation_l	knee_angle_l	knee_angle_l_beta	ankle_angle_l	subtalar_angle_l	mtp_angle_l	lumbar_extension	lumbar_bending	lumbar_rotation	arm_flex_r	arm_add_r	arm_rot_r	elbow_flex_r	pro_sup_r	wrist_flex_r	wrist_dev_r	arm_flex_l	arm_add_l	arm_rot_l	elbow_flex_l	pro_sup_l	wrist_flex_l	wrist_dev_l	platform_rx_u	platform_ry_u	platform_rz_u	platform_ty_u	pelvis_tilt_u	pelvis_list_u	pelvis_rotation_u	pelvis_tx_u	pelvis_ty_u	pelvis_tz_u	hip_flexion_r_u	hip_adduction_r_u	hip_rotation_r_u	knee_angle_r_u	knee_angle_r_beta_u	ankle_angle_r_u	subtalar_angle_r_u	mtp_angle_r_u	hip_flexion_l_u	hip_adduction_l_u	hip_rotation_l_u	knee_angle_l_u	knee_angle_l_beta_u	ankle_angle_l_u	subtalar_angle_l_u	mtp_angle_l_u	lumbar_extension_u	lumbar_bending_u	lumbar_rotation_u	arm_flex_r_u	arm_add_r_u	arm_rot_r_u	elbow_flex_r_u	pro_sup_r_u	wrist_flex_r_u	wrist_dev_r_u	arm_flex_l_u	arm_add_l_u	arm_rot_l_u	elbow_flex_l_u	pro_sup_l_u	wrist_flex_l_u	wrist_dev_l_u	addbrev_r.activation	addlong_r.activation	addlong_r.fiber_length	addmagDist_r.activation	addmagIsch_r.activation	addmagIsch_r.fiber_length	addmagMid_r.activation	addmagProx_r.activation	bflh_r.activation	bflh_r.fiber_length	bfsh_r.activation	edl_r.activation	edl_r.fiber_length	ehl_r.activation	ehl_r.fiber_length	fdl_r.activation	fdl_r.fiber_length	fhl_r.activation	fhl_r.fiber_length	gaslat_r.activation	gaslat_r.fiber_length	gasmed_r.activation	gasmed_r.fiber_length	glmax1_r.activation	glmax2_r.activation	glmax3_r.activation	glmed1_r.activation	glmed2_r.activation	glmed3_r.activation	glmin1_r.activation	glmin2_r.activation	glmin3_r.activation	glmin3_r.fiber_length	grac_r.activation	iliacus_r.activation	perbrev_r.activation	perbrev_r.fiber_length	perlong_r.activation	perlong_r.fiber_length	piri_r.activation	piri_r.fiber_length	psoas_r.activation	recfem_r.activation	recfem_r.fiber_length	sart_r.activation	semimem_r.activation	semimem_r.fiber_length	semiten_r.activation	semiten_r.fiber_length	soleus_r.activation	soleus_r.fiber_length	tfl_r.activation	tfl_r.fiber_length	tibant_r.activation	tibant_r.fiber_length	tibpost_r.activation	tibpost_r.fiber_length	vasint_r.activation	vasint_r.fiber_length	vaslat_r.activation	vaslat_r.fiber_length	vasmed_r.activation	vasmed_r.fiber_length	addbrev_l.activation	addlong_l.activation	addlong_l.fiber_length	addmagDist_l.activation	addmagIsch_l.activation	addmagIsch_l.fiber_length	addmagMid_l.activation	addmagProx_l.activation	bflh_l.activation	bflh_l.fiber_length	bfsh_l.activation	edl_l.activation	edl_l.fiber_length	ehl_l.activation	ehl_l.fiber_length	fdl_l.activation	fdl_l.fiber_length	fhl_l.activation	fhl_l.fiber_length	gaslat_l.activation	gaslat_l.fiber_length	gasmed_l.activation	gasmed_l.fiber_length	glmax1_l.activation	glmax2_l.activation	glmax3_l.activation	glmed1_l.activation	glmed2_l.activation	glmed3_l.activation	glmin1_l.activation	glmin2_l.activation	glmin3_l.activation	glmin3_l.fiber_length	grac_l.activation	iliacus_l.activation	perbrev_l.activation	perbrev_l.fiber_length	perlong_l.activation	perlong_l.fiber_length	piri_l.activation	piri_l.fiber_length	psoas_l.activation	recfem_l.activation	recfem_l.fiber_length	sart_l.activation	semimem_l.activation	semimem_l.fiber_length	semiten_l.activation	semiten_l.fiber_length	soleus_l.activation	soleus_l.fiber_length	tfl_l.activation	tfl_l.fiber_length	tibant_l.activation	tibant_l.fiber_length	tibpost_l.activation	tibpost_l.fiber_length	vasint_l.activation	vasint_l.fiber_length	vaslat_l.activation	vaslat_l.fiber_length	vasmed_l.activation	vasmed_l.fiber_length
      0.00000000	     20.00000000	      0.00000000	      0.00000000	      0.25000000	    -28.10299292	      0.00000000	      0.00000000	     -0.03000000	      0.42300000	      0.00000000	    120.00000016	    -18.06295929	      8.06299987	    124.99999976	    124.99999976	     34.43698637	      0.00000000	      0.00000000	    120.00000010	    -18.06295595	      8.06299990	    125.00000001	    125.00000001	     34.43698617	      0.00000000	      0.00000000	      0.00000000	      0.00000000	      0.00000000	     89.92331301	     -0.00003194	     89.82792045	      0.15668485	      0.15663717	      0.00000000	      0.00000000	     89.92334874	     -0.00002975	     89.82045912	      0.15668485	      0.15663717	      0.00000000	      0.00000000	      0.00000000	      0.00000000	      0.00000000	      0.00000000	      0.00000000	      0.00000000	      0.00000000	      0.00000000	      0.00000000	      0.00000000	      0.00000000	      0.00000000	      0.00000000	      0.00000000	      0.00000000	      0.00000000	      0.00000000	      0.00000000	      0.00000000	      0.00000000	      0.00000000	      0.00000000	      0.00000000	      0.00000000	      0.00000000	      0.00000000	      0.00000000	      0.00000000	      0.00000000	      0.00000000	      0.00000000	      0.00000000	      0.00000000	      0.00000000	      0.00000000	      0.00000000	      0.00000000	      0.00000000	      0.00000000	      0.00000000	      0.00000000	      0.00000000	      0.00000000	      0.01000000	      0.01000000	      0.11010676	      0.01000000	      0.01000000	      0.23163266	      0.01000000	      0.01000000	      0.01000000	      0.12084796	      0.01000000	      0.01000000	      0.04819248	      0.01000000	      0.05522458	      0.01000000	      0.04779745	      0.01000000	      0.05689104	      0.01000000	      0.04883744	      0.01000000	      0.03203565	      0.01000000	      0.01000000	      0.01000000	      0.01000000	      0.01000000	      0.01000000	      0.01000000	      0.01000000	      0.01000000	      0.04087514	      0.01000000	      0.01000000	      0.01000000	      0.05106176	      0.01000000	      0.05797128	      0.01000000	      0.03242895	      0.01000000	      0.01000000	      0.05293747	      0.01000000	      0.01000000	      0.07476983	      0.01000000	      0.22655981	      0.01000000	      0.06303282	      0.01000000	      0.02401565	      0.01000000	      0.04111680	      0.01000000	      0.04235388	      0.01000000	      0.14626839	      0.01000000	      0.14250623	      0.01000000	      0.13931107	      0.01000000	      0.01000000	      0.11010676	      0.01000000	      0.01000000	      0.23163266	      0.01000000	      0.01000000	      0.01000000	      0.12084796	      0.01000000	      0.01000000	      0.04819248	      0.01000000	      0.05522458	      0.01000000	      0.04779745	      0.01000000	      0.05689104	      0.01000000	      0.04883744	      0.01000000	      0.03203565	      0.01000000	      0.01000000	      0.01000000	      0.01000000	      0.01000000	      0.01000000	      0.01000000	      0.01000000	      0.01000000	      0.04087514	      0.01000000	      0.01000000	      0.01000000	      0.05106176	      0.01000000	      0.05797128	      0.01000000	      0.03242895	      0.01000000	      0.01000000	      0.05293747	      0.01000000	      0.01000000	      0.07476983	      0.01000000	      0.22655981	      0.01000000	      0.06303282	      0.01000000	      0.02401565	      0.01000000	      0.04111680	      0.01000000	      0.04235388	      0.01000000	      0.14626839	      0.01000000	      0.14250623	      0.01000000	      0.13931107
      0.00064578	     20.00000000	     -0.00000000	      0.00000000	      0.25000000	    -28.09897224	     -0.00000000	     -0.00000000	     -0.03000047	      0.42300604	     -0.00000000	    119.99630843	    -18.06310575	      8.06473210	    124.99783901	    124.99783901	     34.39347177	      0.00000000	      0.00000000	    119.99630837	    -18.06310241	      8.06473213	    124.99783926	    124.99783926	     34.39347158	     -0.00000000	     -0.00000000	     -0.00525767	      0.00000000	      0.00000000	     89.92458884	     -0.00008457	     89.82789393	      0.15683132	      0.15662084	      0.00000000	     -0.00000000	     89.92462456	     -0.00008238	     89.82043260	      0.15683132	      0.15662084	      0.00000000	     -0.00000000	     -0.00000000	     -0.00000000	     -0.00000000	     -0.00000000	     12.44998443	     -0.00000117	     -0.00000029	     -0.00145607	      0.01871225	     -0.00000000	    -11.43606866	     -0.45416949	      5.35808469	     -6.69862554	     -6.69862554	   -134.63691770	      0.00000000	      0.00000000	    -11.43606742	     -0.45416843	      5.35808732	     -6.69862521	     -6.69862521	   -134.63691739	     -0.00000000	     -0.00000000	    -16.28068862	      0.00000168	      0.00000022	      3.95069808	     -0.16293463	     -0.08205623	      0.45348450	     -0.05078555	      0.00000000	     -0.00000000	      3.95067372	     -0.16292774	     -0.08205797	      0.45345645	     -0.05078125	      0.00000000	     -0.00000000	      0.01000000	      0.01000000	      0.11010633	      0.01000000	      0.01000000	      0.23163166	      0.01000000	      0.01000000	      0.01000000	      0.12084796	      0.01000000	      0.01000000	      0.04819415	      0.01000000	      0.05522678	      0.01000000	      0.04779739	      0.01000000	      0.05689076	      0.01000000	      0.04883625	      0.01000000	      0.03203452	      0.01000000	      0.01000000	      0.01000000	      0.01000000	      0.01000000	      0.01000000	      0.01000000	      0.01000000	      0.01000000	      0.04087477	      0.01000000	      0.01000000	      0.01000000	      0.05106150	      0.01000000	      0.05797100	      0.01000000	      0.03242877	      0.01000000	      0.01000000	      0.05293746	      0.01000000	      0.01000000	      0.07476983	      0.01000000	      0.22655973	      0.01000000	      0.06302950	      0.01000000	      0.02401564	      0.01000000	      0.04112030	      0.01000000	      0.04235375	      0.01000000	      0.14626792	      0.01000000	      0.14250584	      0.01000000	      0.13931067	      0.01000000	      0.01000000	      0.11010633	      0.01000000	      0.01000000	      0.23163166	      0.01000000	      0.01000000	      0.01000000	      0.12084796	      0.01000000	      0.01000000	      0.04819415	      0.01000000	      0.05522678	      0.01000000	      0.04779739	      0.01000000	      0.05689076	      0.01000000	      0.04883625	      0.01000000	      0.03203452	      0.01000000	      0.01000000	      0.01000000	      0.01000000	      0.01000000	      0.01000000	      0.01000000	      0.01000000	      0.01000000	      0.04087477	      0.01000000	      0.01000000	      0.01000000	      0.05106150	      0.01000000	      0.05797100	      0.01000000	      0.03242877	      0.01000000	      0.01000000	      0.05293746	      0.01000000	      0.01000000	      0.07476983	      0.01000000	      0.22655973	      0.01000000	      0.06302950	      0.01000000	      0.02401564	      0.01000000	      0.04112030	      0.01000000	      0.04235375	      0.01000000	      0.14626792	      0.01000000	      0.14250584	      0.01000000	      0.13931067
      0.00129156	     20.00000000	     -0.00000000	     -0.00000000	      0.25000000	    -28.08691671	     -0.00000000	     -0.00000000	     -0.03000188	      0.42302417	     -0.00000000	    119.98522234	    -18.06354671	      8.06990600	    124.99133140	    124.99133140	     34.26339017	      0.00000000	      0.00000000	    119.98522228	    -18.06354337	      8.06990604	    124.99133164	    124.99133164	     34.26338998	     -0.00000000	     -0.00000000	     -0.02102346	      0.00000000	      0.00000000	     89.92841469	     -0.00024229	     89.82781462	      0.15727028	      0.15657116	     -0.00000000	     -0.00000000	     89.92845039	     -0.00024009	     89.82035328	      0.15727024	      0.15657116	      0.00000000	      0.00000000	     -0.00000000	     -0.00000000	     -0.00000000	     -0.00000000	     24.88284709	     -0.00000233	     -0.00000057	     -0.00293274	      0.03743240	     -0.00000000	    -22.90549101	     -0.91218158	     10.65149078	    -13.47400312	    -13.47400312	   -267.93306008	      0.00000000	      0.00000000	    -22.90548855	     -0.91217946	     10.65149601	    -13.47400247	    -13.47400247	   -267.93305945	     -0.00000000	     -0.00000000	    -32.54264088	      0.00000335	      0.00000044	      7.89728458	     -0.32543253	     -0.16346587	      0.90571489	     -0.10345991	     -0.00000000	      0.00000000	      7.89723595	     -0.32541897	     -0.16346932	      0.90565947	     -0.10345143	      0.00000000	      0.00000000	      0.01000000	      0.01000000	      0.11010383	      0.01000000	      0.01000000	      0.23162881	      0.01000000	      0.01000000	      0.01000000	      0.12084794	      0.01000000	      0.01000000	      0.04820717	      0.01000000	      0.05524496	      0.01000000	      0.04779704	      0.01000000	      0.05688895	      0.01000000	      0.04882823	      0.01000000	      0.03202701	      0.01000000	      0.01000000	      0.01000000	      0.01000000	      0.01000000	      0.01000000	      0.01000000	      0.01000000	      0.01000000	      0.04087270	      0.01000000	      0.01000000	      0.01000000	      0.05105983	      0.01000000	      0.05796915	      0.01000000	      0.03242771	      0.01000000	      0.01000000	      0.05293744	      0.01000000	      0.01000000	      0.07476981	      0.01000000	      0.22655934	      0.01000000	      0.06300898	      0.01000000	      0.02401564	      0.01000000	      0.04115270	      0.01000000	      0.04235287	      0.01000000	      0.14626597	      0.01000000	      0.14250405	      0.01000000	      0.13930891	      0.01000000	      0.01000000	      0.11010382	      0.01000000	      0.01000000	      0.23162881	      0.01000000	      0.01000000	      0.01000000	      0.12084794	      0.01000000	      0.01000000	      0.04820717	      0.01000000	      0.05524496	      0.01000000	      0.04779704	      0.01000000	      0.05688895	      0.01000000	      0.04882823	      0.01000000	      0.03202701	      0.01000000	      0.01000000	      0.01000000	      0.01000000	      0.01000000	      0.01000000	      0.01000000	      0.01000000	      0.01000000	      0.04087270	      0.01000000	      0.01000000	      0.01000000	      0.05105983	      0.01000000	      0.05796915	      0.01000000	      0.03242771	      0.01000000	      0.01000000	      0.05293744	      0.01000000	      0.01000000	      0.07476981	      0.01000000	      0.22655934	      0.01000000	      0.06300898	      0.01000000	      0.02401564	      0.01000000	      0.04115270	      0.01000000	      0.04235287	      0.01000000	      0.14626597	      0.01000000	      0.14250405	      0.01000000	      0.13930891
      0.00215873	     20.00000000	     -0.00000000	      0.00000000	      0.25000000	    -28.05811358	     -0.00000000	     -0.00000000	     -0.03000531	      0.42306754	     -0.00000000	    119.95865464	    -18.06460671	      8.08217124	    124.97562647	    124.97562647	     33.95452221	      0.00000000	      0.00000000	    119.95865459	    -18.06460337	      8.08217128	    124.97562672	    124.97562672	     33.95452201	     -0.00000000	     -0.00000000	     -0.05869733	      0.00000001	      0.00000000	     89.93755815	     -0.00061882	     89.82762589	      0.15831817	      0.15644953	     -0.00000000	      0.00000000	     89.93759379	     -0.00061660	     89.82016455	      0.15831807	      0.15644954	     -0.00000000	      0.00000000	     -0.00000000	     -0.00000000	      0.00000000	     -0.00000000	     41.53960521	     -0.00000387	     -0.00000095	     -0.00497418	      0.06259925	     -0.00000001	    -38.38324084	     -1.53385154	     17.60470039	    -22.79894329	    -22.79894329	   -443.82416232	      0.00000000	     -0.00000000	    -38.38323676	     -1.53384802	     17.60470907	    -22.79894221	    -22.79894221	   -443.82416123	     -0.00000000	     -0.00000000	    -54.33839724	      0.00000557	      0.00000074	     13.18956463	     -0.54285162	     -0.27161473	      1.51071975	     -0.17760274	     -0.00000000	      0.00000000	     13.18948363	     -0.54282950	     -0.27162044	      1.51062878	     -0.17758887	     -0.00000000	      0.00000000	      0.01000000	      0.01000000	      0.11009553	      0.01000000	      0.01000000	      0.23161891	      0.01000000	      0.01000000	      0.01000000	      0.12084788	      0.01000000	      0.01000000	      0.04828772	      0.01000000	      0.05535373	      0.01000000	      0.04779563	      0.01000000	      0.05688183	      0.01000000	      0.04879427	      0.01000000	      0.03199558	      0.01000000	      0.01000000	      0.01000000	      0.01000000	      0.01000000	      0.01000000	      0.01000000	      0.01000000	      0.01000000	      0.04086587	      0.01000000	      0.01000000	      0.01000000	      0.05105375	      0.01000000	      0.05796201	      0.01000000	      0.03242391	      0.01000000	      0.01000000	      0.05293736	      0.01000000	      0.01000000	      0.07476976	      0.01000000	      0.22655814	      0.01000000	      0.06293682	      0.01000000	      0.02401564	      0.01000000	      0.04130086	      0.01000000	      0.04234942	      0.01000000	      0.14626047	      0.01000000	      0.14249893	      0.01000000	      0.13930394	      0.01000000	      0.01000000	      0.11009552	      0.01000000	      0.01000000	      0.23161891	      0.01000000	      0.01000000	      0.01000000	      0.12084788	      0.01000000	      0.01000000	      0.04828772	      0.01000000	      0.05535373	      0.01000000	      0.04779563	      0.01000000	      0.05688183	      0.01000000	      0.04879427	      0.01000000	      0.03199558	      0.01000000	      0.01000000	      0.01000000	      0.01000000	      0.01000000	      0.01000000	      0.01000000	      0.01000000	      0.01000000	      0.04086587	      0.01000000	      0.01000000	      0.01000000	      0.05105375	      0.01000000	      0.05796201	      0.01000000	      0.03242391	      0.01000000	      0.01000000	      0.05293736	      0.01000000	      0.01000000	      0.07476976	      0.01000000	      0.22655814	      0.01000000	      0.06293682	      0.01000000	      0.02401564	      0.01000000	      0.04130086	      0.01000000	      0.04234942	      0.01000000	      0.14626047	      0.01000000	      0.14249893	      0.01000000	      0.13930394
